<svg xmlns="http://www.w3.org/2000/svg" viewBox="0 0 64 64" width="64" height="64" preserveAspectRatio="xMidYMid meet" style="width: 100%; height: 100%; transform: translate3d(0px, 0px, 0px);"><defs><clipPath id="__lottie_element_13"><rect width="64" height="64" x="0" y="0"></rect></clipPath></defs><g clip-path="url(#__lottie_element_13)"><g transform="matrix(1,0,0,1,10,16)" opacity="1" style="display: block;"><g opacity="1" transform="matrix(1,0,0,1,22,16)"><path fill="rgb(255,255,255)" fill-opacity="1" d=" M6,-6 C8.425000190734863,-4.178999900817871 10,-1.281999945640564 10,2 C10,2 10,4 10,4 C10,4 6,4 6,4 C6,4 6,16 6,16 C6,16 18,16 18,16 C18,16 18,4 18,4 C18,4 14,4 14,4 C14,4 14,2 14,2 C14,-1.9160000085830688 12.371000289916992,-5.453999996185303 9.765999794006348,-8 C9.765999794006348,-8 6,-12 6,-12 C6,-12 6,-6 6,-6z M10,8 C10,8 14,8 14,8 C14,8 14,12 14,12 C14,12 10,12 10,12 C10,12 10,8 10,8z"></path></g></g><g transform="matrix(1,0,0,1,10,16)" opacity="1" style="display: block;"><g opacity="1" transform="matrix(1,0,0,1,22,16)"><path fill="rgb(255,255,255)" fill-opacity="1" d=" M-6,-12 C-6,-12 -9.765999794006348,-8 -9.765999794006348,-8 C-12.371000289916992,-5.453999996185303 -14,-1.9160000085830688 -14,2 C-14,2 -14,4 -14,4 C-14,4 -18,4 -18,4 C-18,4 -18,16 -18,16 C-18,16 -6,16 -6,16 C-6,16 -6,4 -6,4 C-6,4 -10,4 -10,4 C-10,4 -10,2 -10,2 C-10,-1.281999945640564 -8.425000190734863,-4.178999900817871 -6,-6 C-6,-6 -6,-12 -6,-12z M-14,8 C-14,8 -10,8 -10,8 C-10,8 -10,12 -10,12 C-10,12 -14,12 -14,12 C-14,12 -14,8 -14,8z"></path></g></g><g transform="matrix(1,0,0,1,10,16)" opacity="1" style="display: block;"><g opacity="1" transform="matrix(1,0,0,1,22,16)"><path fill="rgb(255,255,255)" fill-opacity="1" d=" M-6,-16 C-6,-16 -6,-12 -6,-12 C-6,-12 -14.543000221252441,-12 -14.543000221252441,-12 C-15.255999565124512,-13.234999656677246 -16.572999954223633,-13.996999740600586 -18,-14 C-20.208999633789062,-14 -22,-12.208999633789062 -22,-10 C-22,-7.790999889373779 -20.208999633789062,-6 -18,-6 C-16.57200050354004,-6.000999927520752 -15.253000259399414,-6.763000011444092 -14.538999557495117,-8 C-14.538999557495117,-8 -9.765999794006348,-8 -9.765999794006348,-8 C-9.765999794006348,-8 -5.968999862670898,-8.00100040435791 -5.968999862670898,-8.00100040435791 C-5.968999862670898,-8.00100040435791 -6,-4 -6,-4 C-6,-4 6,-4 6,-4 C6,-4 6,-8 6,-8 C6,-8 9.765999794006348,-8 9.765999794006348,-8 C9.765999794006348,-8 14.543000221252441,-8 14.543000221252441,-8 C15.255999565124512,-6.764999866485596 16.572999954223633,-6.002999782562256 18,-6 C20.208999633789062,-6 22,-7.790999889373779 22,-10 C22,-12.208999633789062 20.208999633789062,-14 18,-14 C16.57200050354004,-13.99899959564209 15.253000259399414,-13.237000465393066 14.538999557495117,-12 C14.538999557495117,-12 6,-12 6,-12 C6,-12 6,-16 6,-16 C6,-16 -6,-16 -6,-16z M-2,-12 C-2,-12 2,-12 2,-12 C2,-12 2,-8 2,-8 C2,-8 -2,-8 -2,-8 C-2,-8 -2,-12 -2,-12z"></path></g></g></g></svg>