<svg xmlns="http://www.w3.org/2000/svg" viewBox="0 0 64 64" width="64" height="64" preserveAspectRatio="xMidYMid meet" style="width: 100%; height: 100%; transform: translate3d(0px, 0px, 0px);">
	<defs>
		<clipPath id="__lottie_element_46">
			<rect width="64" height="64" x="0" y="0"></rect>
		</clipPath></defs><g clip-path="url(#__lottie_element_46)">
				<g transform="matrix(1,0,0,1,32.319000244140625,32.44200134277344)" opacity="1" style="display: block;"><g opacity="1" transform="matrix(1,0,0,1,-0.3190000057220459,-0.44200000166893005)"><path stroke-linecap="butt" stroke-linejoin="miter" fill-opacity="0" stroke-miterlimit="4" stroke="rgb(255,255,255)" stroke-opacity="1" stroke-width="4" d=" M16,-12.00200080871582 C16,-12.00200080871582 16,12.00200080871582 16,12.00200080871582 C16,14.209600448608398 14.207599639892578,16.00200080871582 12,16.00200080871582 C12,16.00200080871582 -12,16.00200080871582 -12,16.00200080871582 C-14.207599639892578,16.00200080871582 -16,14.209600448608398 -16,12.00200080871582 C-16,12.00200080871582 -16,-12.00200080871582 -16,-12.00200080871582 C-16,-14.209600448608398 -14.207599639892578,-16.00200080871582 -12,-16.00200080871582 C-12,-16.00200080871582 12,-16.00200080871582 12,-16.00200080871582 C14.207599639892578,-16.00200080871582 16,-14.209600448608398 16,-12.00200080871582z"></path></g></g><g transform="matrix(1,0,0,1,31.625001907348633,31.125)" opacity="1" style="display: block;"><g opacity="1" transform="matrix(0.9121900200843811,0,0,1,0.4699999988079071,-3.130000114440918)"><path fill="rgb(255,255,255)" fill-opacity="1" d="M0 0"></path></g></g><g transform="matrix(1,0,0,1,25.4060001373291,33.125)" opacity="1" style="display: block;"><g opacity="1" transform="matrix(1,0,0,1,0.4699999988079071,4.869999885559082)"><path fill="rgb(255,255,255)" fill-opacity="1" d=" M2,-8 C2,-8 2,8 2,8 C2,8 -2,8 -2,8 C-2,8 -2,-8 -2,-8 C-2,-8 2,-8 2,-8z"></path></g></g><g transform="matrix(1,0,0,1,30.000001907348633,51)" opacity="1" style="display: block;"><g opacity="1" transform="matrix(1,0,0,1,0,0)"><path stroke-linecap="butt" stroke-linejoin="miter" fill-opacity="0" stroke-miterlimit="4" stroke="rgb(255,255,255)" stroke-opacity="1" stroke-width="4" d=" M1.937999963760376,-9.968999862670898 C1.937999963760376,-9.968999862670898 11,-9.968999862670898 11,-9.968999862670898"></path></g></g><g transform="matrix(1,0,0,1,30.000001907348633,45)" opacity="1" style="display: block;"><g opacity="1" transform="matrix(1,0,0,1,0,0)"><path stroke-linecap="butt" stroke-linejoin="miter" fill-opacity="0" stroke-miterlimit="4" stroke="rgb(255,255,255)" stroke-opacity="1" stroke-width="4" d=" M1.937999963760376,-9.968999862670898 C1.937999963760376,-9.968999862670898 11,-9.968999862670898 11,-9.968999862670898"></path></g></g><g transform="matrix(1,0,0,1,31.437999725341797,33.5)" opacity="1" style="display: block;"><g opacity="1" transform="matrix(1,0,0,1,-3.3399999141693115,-11.527000427246094)"><path fill="rgb(255,255,255)" fill-opacity="1" d=" M0,-2 C1.1038000583648682,-2 2,-1.1038000583648682 2,0 C2,1.1038000583648682 1.1038000583648682,2 0,2 C-1.1038000583648682,2 -2,1.1038000583648682 -2,0 C-2,-1.1038000583648682 -1.1038000583648682,-2 0,-2z"></path></g></g><g transform="matrix(1,0,0,1,25.375,33.5)" opacity="1" style="display: block;"><g opacity="1" transform="matrix(1,0,0,1,-3.3399999141693115,-11.527000427246094)"><path fill="rgb(255,255,255)" fill-opacity="1" d=" M0,-2 C1.1038000583648682,-2 2,-1.1038000583648682 2,0 C2,1.1038000583648682 1.1038000583648682,2 0,2 C-1.1038000583648682,2 -2,1.1038000583648682 -2,0 C-2,-1.1038000583648682 -1.1038000583648682,-2 0,-2z"></path></g></g><g transform="matrix(1,0,0,1,32,32.375)" opacity="1" style="display: block;"><g opacity="1" transform="matrix(1,0,0,1,0,0)"><path stroke-linecap="butt" stroke-linejoin="miter" fill-opacity="0" stroke-miterlimit="4" stroke="rgb(255,255,255)" stroke-opacity="1" stroke-width="4" d=" M-15.625,-4.375 C-15.625,-4.375 15.25,-4.375 15.25,-4.375"></path></g></g><g transform="matrix(1,0,0,1,32,32)" opacity="1" style="display: block;"><g opacity="1" transform="matrix(1,0,0,1,0,0)"><path stroke-linecap="butt" stroke-linejoin="miter" fill-opacity="0" stroke-miterlimit="4" stroke="rgb(255,255,255)" stroke-opacity="1" stroke-width="4" d=" M1.937999963760376,-9.968999862670898 C1.937999963760376,-9.968999862670898 9,-9.968999862670898 9,-9.968999862670898"></path></g></g></g>
</svg>