<svg width="89" height="50" viewBox="0 0 89 50" fill="none" xmlns="http://www.w3.org/2000/svg">
<circle cx="25" cy="25" r="24.5" stroke="white" stroke-dasharray="6 6"/>
<path d="M17.8936 31.6562V26.5586C18.7041 28.8145 19.8516 30.5723 21.3359 31.832C22.8203 33.082 24.334 33.707 25.877 33.707C26.9023 33.707 27.7275 33.4238 28.3525 32.8574C28.9873 32.2812 29.3047 31.4707 29.3047 30.4258C29.3047 29.9082 29.1875 29.415 28.9531 28.9463C28.7285 28.4775 28.4551 28.0869 28.1328 27.7744C27.8203 27.4521 27.3955 27.125 26.8584 26.793C26.3311 26.4609 25.8672 26.2021 25.4668 26.0166C25.0762 25.8311 24.5732 25.6016 23.958 25.3281C23.3428 25.0547 22.9033 24.8545 22.6396 24.7275C21.9658 24.3857 21.3848 24.0537 20.8965 23.7314C20.418 23.4092 19.9395 23.0186 19.4609 22.5596C18.9824 22.1006 18.6162 21.5781 18.3623 20.9922C18.1182 20.3965 17.9961 19.752 17.9961 19.0586C17.9961 18.3652 18.1328 17.75 18.4062 17.2129C18.6797 16.666 19.0312 16.2314 19.4609 15.9092C19.9004 15.5771 20.418 15.3037 21.0137 15.0889C21.6094 14.874 22.2002 14.7275 22.7861 14.6494C23.3818 14.5713 24.002 14.5322 24.6465 14.5322C27.2637 14.5322 29.3633 15.1133 30.9453 16.2754V20.8018C30.6816 20.0498 30.335 19.3418 29.9053 18.6777C29.4854 18.0137 28.9824 17.4131 28.3965 16.876C27.8203 16.3291 27.1416 15.8994 26.3604 15.5869C25.5889 15.2646 24.7686 15.1035 23.8994 15.1035C22.9033 15.1035 22.0732 15.3037 21.4092 15.7041C20.7451 16.0947 20.4131 16.6953 20.4131 17.5059C20.4131 17.8477 20.4717 18.1846 20.5889 18.5166C20.7061 18.8389 20.8477 19.127 21.0137 19.3809C21.1895 19.6348 21.4238 19.8936 21.7168 20.1572C22.0195 20.4209 22.2979 20.6406 22.5518 20.8164C22.8057 20.9922 23.1328 21.1924 23.5332 21.417C23.9434 21.6416 24.2803 21.8174 24.5439 21.9443C24.8076 22.0713 25.1543 22.2373 25.584 22.4424C26.0137 22.6475 26.3311 22.7988 26.5361 22.8965C27.2002 23.2188 27.752 23.502 28.1914 23.7461C28.6309 23.9805 29.124 24.2979 29.6709 24.6982C30.2178 25.0986 30.6523 25.499 30.9746 25.8994C31.2969 26.2998 31.5703 26.7881 31.7949 27.3643C32.0293 27.9307 32.1465 28.541 32.1465 29.1953C32.1465 30.1426 31.9561 30.958 31.5752 31.6416C31.2041 32.3252 30.6816 32.8525 30.0078 33.2236C29.334 33.5947 28.6016 33.8584 27.8105 34.0146C27.0195 34.1807 26.1357 34.2637 25.1592 34.2637C23.6748 34.2637 22.293 34 21.0137 33.4727C19.7441 32.9453 18.7041 32.3398 17.8936 31.6562Z" fill="white"/>
<circle cx="64" cy="25" r="24.5" stroke="white" stroke-dasharray="6 6"/>
<path d="M56.8936 31.6562V26.5586C57.7041 28.8145 58.8516 30.5723 60.3359 31.832C61.8203 33.082 63.334 33.707 64.877 33.707C65.9023 33.707 66.7275 33.4238 67.3525 32.8574C67.9873 32.2812 68.3047 31.4707 68.3047 30.4258C68.3047 29.9082 68.1875 29.415 67.9531 28.9463C67.7285 28.4775 67.4551 28.0869 67.1328 27.7744C66.8203 27.4521 66.3955 27.125 65.8584 26.793C65.3311 26.4609 64.8672 26.2021 64.4668 26.0166C64.0762 25.8311 63.5732 25.6016 62.958 25.3281C62.3428 25.0547 61.9033 24.8545 61.6396 24.7275C60.9658 24.3857 60.3848 24.0537 59.8965 23.7314C59.418 23.4092 58.9395 23.0186 58.4609 22.5596C57.9824 22.1006 57.6162 21.5781 57.3623 20.9922C57.1182 20.3965 56.9961 19.752 56.9961 19.0586C56.9961 18.3652 57.1328 17.75 57.4062 17.2129C57.6797 16.666 58.0312 16.2314 58.4609 15.9092C58.9004 15.5771 59.418 15.3037 60.0137 15.0889C60.6094 14.874 61.2002 14.7275 61.7861 14.6494C62.3818 14.5713 63.002 14.5322 63.6465 14.5322C66.2637 14.5322 68.3633 15.1133 69.9453 16.2754V20.8018C69.6816 20.0498 69.335 19.3418 68.9053 18.6777C68.4854 18.0137 67.9824 17.4131 67.3965 16.876C66.8203 16.3291 66.1416 15.8994 65.3604 15.5869C64.5889 15.2646 63.7686 15.1035 62.8994 15.1035C61.9033 15.1035 61.0732 15.3037 60.4092 15.7041C59.7451 16.0947 59.4131 16.6953 59.4131 17.5059C59.4131 17.8477 59.4717 18.1846 59.5889 18.5166C59.7061 18.8389 59.8477 19.127 60.0137 19.3809C60.1895 19.6348 60.4238 19.8936 60.7168 20.1572C61.0195 20.4209 61.2979 20.6406 61.5518 20.8164C61.8057 20.9922 62.1328 21.1924 62.5332 21.417C62.9434 21.6416 63.2803 21.8174 63.5439 21.9443C63.8076 22.0713 64.1543 22.2373 64.584 22.4424C65.0137 22.6475 65.3311 22.7988 65.5361 22.8965C66.2002 23.2188 66.752 23.502 67.1914 23.7461C67.6309 23.9805 68.124 24.2979 68.6709 24.6982C69.2178 25.0986 69.6523 25.499 69.9746 25.8994C70.2969 26.2998 70.5703 26.7881 70.7949 27.3643C71.0293 27.9307 71.1465 28.541 71.1465 29.1953C71.1465 30.1426 70.9561 30.958 70.5752 31.6416C70.2041 32.3252 69.6816 32.8525 69.0078 33.2236C68.334 33.5947 67.6016 33.8584 66.8105 34.0146C66.0195 34.1807 65.1357 34.2637 64.1592 34.2637C62.6748 34.2637 61.293 34 60.0137 33.4727C58.7441 32.9453 57.7041 32.3398 56.8936 31.6562Z" fill="white"/>
</svg>
